<?xml version="1.0" standalone="no"?>
<!DOCTYPE svg PUBLIC "-//W3C//DTD SVG 20010904//EN"
 "http://www.w3.org/TR/2001/REC-SVG-20010904/DTD/svg10.dtd">
<svg version="1.0" xmlns="http://www.w3.org/2000/svg"
 width="300.000000pt" height="300.000000pt" viewBox="0 0 300.000000 300.000000"
 preserveAspectRatio="xMidYMid meet">
<metadata>
Created by potrace 1.10, written by Peter Selinger 2001-2011
</metadata>
<g transform="translate(0.000000,300.000000) scale(0.100000,-0.100000)"
fill="#1c1c1c" stroke="none">
<path d="M938 2918 c-3 -7 -33 -12 -79 -13 -74 -3 -113 -14 -249 -71 -41 -17
-91 -29 -135 -32 -89 -6 -102 -13 -110 -61 -12 -73 -4 -81 83 -81 50 0 109 9
170 25 51 14 99 25 106 25 8 0 20 -43 34 -120 45 -243 97 -352 195 -406 99
-54 318 -43 462 24 115 54 169 125 180 237 10 95 21 115 62 115 69 0 123 -84
123 -190 0 -55 26 -90 128 -173 101 -83 164 -109 265 -109 138 0 243 36 331
113 129 114 163 368 83 608 l-22 66 -130 12 c-191 17 -359 16 -430 -3 -63 -16
-89 -29 -150 -79 -31 -24 -49 -30 -101 -33 -97 -6 -130 3 -178 52 -51 53 -131
82 -266 96 -136 14 -367 13 -372 -2z m1418 -119 c94 -24 138 -101 151 -260 15
-197 -63 -285 -263 -296 -163 -10 -175 -5 -283 104 l-94 94 6 97 c6 100 17
155 39 185 9 12 57 28 138 47 191 44 230 48 306 29z m-910 -44 c65 -19 104
-49 104 -81 0 -14 -11 -46 -24 -72 -13 -26 -32 -75 -41 -107 -30 -104 -59
-150 -105 -169 -65 -26 -218 -48 -304 -44 -75 3 -80 5 -107 37 -52 63 -82 154
-87 268 -5 119 -15 108 138 147 189 47 311 53 426 21z"/>
<path d="M2527 1873 c-9 -21 -26 -69 -37 -108 -11 -38 -31 -88 -43 -110 l-23
-40 -64 2 c-86 2 -133 22 -237 100 -48 35 -104 74 -126 84 -99 51 -334 82
-452 60 -32 -6 -104 -32 -160 -57 -55 -26 -126 -54 -158 -63 -47 -14 -66 -26
-97 -63 -22 -25 -57 -53 -78 -61 -21 -9 -47 -28 -57 -43 -19 -29 -163 -187
-176 -192 -4 -2 -10 11 -14 28 -11 51 -65 85 -65 41 0 -34 -19 -33 -40 1 -11
18 -39 89 -61 158 -23 69 -50 142 -61 163 -19 39 -85 117 -97 117 -4 0 -22
-47 -41 -105 -31 -101 -32 -110 -26 -213 18 -287 18 -303 6 -331 -9 -22 -9
-39 0 -72 7 -24 16 -99 20 -165 11 -165 4 -150 253 -528 l72 -109 85 -24 c108
-31 180 -69 308 -165 135 -101 149 -104 444 -101 199 2 231 5 255 20 22 15 49
18 153 18 104 0 131 3 153 18 33 21 77 81 120 161 17 32 51 75 74 95 37 31 43
40 37 63 -4 21 1 36 21 59 59 71 72 121 86 340 5 88 13 169 18 181 l8 23 7
-23 c11 -34 27 -15 20 24 -6 34 3 43 22 24 12 -12 54 108 54 153 0 16 -14 58
-32 94 l-32 66 17 66 c10 37 17 103 17 151 -1 126 -29 300 -49 300 -4 0 -15
-17 -24 -37z m-719 -393 c39 -16 79 -30 88 -30 13 0 15 -3 7 -11 -7 -7 -61
-12 -134 -13 -111 -2 -131 -5 -192 -30 -57 -24 -72 -27 -93 -17 -20 9 -35 7
-82 -13 -31 -14 -60 -21 -64 -18 -3 4 -1 27 5 52 l10 45 126 32 c167 42 236
43 329 3z"/>
</g>
</svg>
